<svg xmlns="http://www.w3.org/2000/svg" version="1.1" xmlns:xlink="http://www.w3.org/1999/xlink" xmlns:svgjs="http://svgjs.dev/svgjs" width="2000" height="595" viewBox="0 0 2000 595"><g transform="matrix(1,0,0,1,-1.2121212121212466,1.0216337555635278)"><svg viewBox="0 0 396 118" data-background-color="#ffffff" preserveAspectRatio="xMidYMid meet" height="595" width="2000" xmlns="http://www.w3.org/2000/svg" xmlns:xlink="http://www.w3.org/1999/xlink"><g id="tight-bounds" transform="matrix(1,0,0,1,0.2400000000000091,-0.2026097195907539)"><svg viewBox="0 0 395.52 118.40521943918148" height="118.40521943918148" width="395.52"><g><svg viewBox="0 0 590.5396066663918 176.78744871273778" height="118.40521943918148" width="395.52"><g transform="matrix(1,0,0,1,195.01960666639178,52.5961353489317)"><svg viewBox="0 0 395.52 71.59517801487438" height="71.59517801487438" width="395.52"><g id="textblocktransform"><svg viewBox="0 0 395.52 71.59517801487438" height="71.59517801487438" width="395.52" id="textblock"><g><svg viewBox="0 0 395.52 38.615017946877245" height="38.615017946877245" width="395.52"><g transform="matrix(1,0,0,1,0,0)"><svg width="395.52" viewBox="2.85 -33.5 348.21999999999997 34" height="38.615017946877245" data-palette-color="#000000"><path d="M13.3 0.5L13.3 0.5Q10.15 0.5 7.93-0.1 5.7-0.7 3.35-1.85L3.35-1.85 2.85-10.1 3.65-10.1 6.3-4.65Q8.05-3.2 9.75-2.55 11.45-1.9 13.15-1.9L13.15-1.9Q16.05-1.9 17.73-3.4 19.4-4.9 19.4-7.5L19.4-7.5Q19.4-9.55 18.48-10.78 17.55-12 15.73-12.98 13.9-13.95 11.25-15.25L11.25-15.25Q7.7-16.95 5.8-18.82 3.9-20.7 3.9-24.1L3.9-24.1Q3.9-25.9 4.78-27.58 5.65-29.25 7.15-30.58 8.65-31.9 10.5-32.7 12.35-33.5 14.35-33.5L14.35-33.5Q16.7-33.5 18.75-32.95 20.8-32.4 22.8-31.35L22.8-31.35 23.3-23.35 22.5-23.35 19.9-28.7Q18.3-29.95 17-30.5 15.7-31.05 14.05-31.05L14.05-31.05Q11.9-31.05 10.48-29.6 9.05-28.15 9.05-25.95L9.05-25.95Q9.05-23.5 10.58-22.1 12.1-20.7 15.5-19.1L15.5-19.1Q18.5-17.65 20.48-16.32 22.45-15 23.4-13.35 24.35-11.7 24.35-9.15L24.35-9.15Q24.35-6.8 23.35-5 22.35-3.2 20.7-1.98 19.05-0.75 17.13-0.13 15.2 0.5 13.3 0.5ZM45.7 0.5L45.7 0.5Q42.25 0.5 39.52-0.63 36.8-1.75 35.25-4.28 33.7-6.8 33.7-10.95L33.7-10.95 33.7-25.55 30.05-27.2 30.05-28 42.3-28 42.3-27.2 38.65-25.55 38.65-11.2Q38.65-6.2 40.85-4.25 43.05-2.3 46.75-2.3L46.75-2.3Q48.9-2.3 50.67-3.13 52.45-3.95 53.5-5.68 54.55-7.4 54.55-10.1L54.55-10.1 54.55-25.65 50.35-27.2 50.35-28 61.05-28 61.05-27.2 57.5-25.6 57.5-10.85Q57.5-6.8 56-4.3 54.5-1.8 51.85-0.65 49.2 0.5 45.7 0.5ZM77.05 0L66.84 0 66.84-0.8 70.39-2.45 71.34-25.55 67.5-27.2 67.5-28 77.15-28 86.3-7.5 95.75-28 104.95-28 104.95-27.2 101.25-25.85 101.94-2.45 105.15-0.8 105.15 0 93.55 0 93.55-0.8 96.9-2.4 96.44-23.15 85.7 0.2 84.2 0.2 73.9-23.1 73.39-2.4 77.05-0.8 77.05 0ZM134.19 0L110.94 0 110.94-0.8 114.54-2.45 114.54-25.55 110.94-27.2 110.94-28 132.94-28 132.94-20.8 132.14-20.8 129.54-25.5 119.49-25.5 119.49-15.75 126.79-15.75 128.49-19.2 129.29-19.2 129.29-9.85 128.49-9.85 126.79-13.25 119.49-13.25 119.49-2.5 130.64-2.5 133.39-8.15 134.19-8.15 134.19 0ZM163.74 0L140.49 0 140.49-0.8 144.09-2.45 144.09-25.55 140.49-27.2 140.49-28 162.49-28 162.49-20.8 161.69-20.8 159.09-25.5 149.04-25.5 149.04-15.75 156.34-15.75 158.04-19.2 158.84-19.2 158.84-9.85 158.04-9.85 156.34-13.25 149.04-13.25 149.04-2.5 160.19-2.5 162.94-8.15 163.74-8.15 163.74 0ZM189.49 0L175.49 0 175.49-0.8 179.99-2.45 179.99-25.5 172.64-25.5 169.99-19.4 169.19-19.4 169.19-28 195.79-28 195.79-19.4 194.99-19.4 192.29-25.5 184.94-25.5 184.94-2.45 189.49-0.8 189.49 0ZM227.33 0L213.43 0 213.43-0.8 217.48-2.8 217.48-30.2 213.43-32.2 213.43-33 227.43-33Q233.33-33 236.91-30.85 240.48-28.7 240.48-24.05L240.48-24.05Q240.48-21.3 238.61-19.18 236.73-17.05 233.53-15.83 230.33-14.6 226.23-14.6L226.23-14.6 222.73-14.6 222.73-2.8 227.33-0.8 227.33 0ZM226.18-30.25L222.73-30.25 222.73-17.25 226.53-17.25Q230.48-17.25 232.73-19.05 234.98-20.85 234.98-23.65L234.98-23.65Q234.98-27.15 232.71-28.7 230.43-30.25 226.18-30.25L226.18-30.25ZM253.68 0L244.38 0 244.38-0.8 246.93-2.15 258.03-28.25 260.63-28.25 271.63-2.25 274.58-0.8 274.58 0 262.98 0 262.98-0.8 266.48-2.25 263.38-9.65 253.08-9.65 250.03-2.2 253.68-0.8 253.68 0ZM258.18-22.1L254.13-12.15 262.33-12.15 258.18-22.1ZM298.53 0L284.53 0 284.53-0.8 289.03-2.45 289.03-25.5 281.68-25.5 279.03-19.4 278.23-19.4 278.23-28 304.83-28 304.83-19.4 304.03-19.4 301.33-25.5 293.98-25.5 293.98-2.45 298.53-0.8 298.53 0ZM321.93 0L310.18 0 310.18-0.8 313.48-2.45 313.48-25.55 310.18-27.2 310.18-28 321.93-28 321.93-27.2 318.48-25.55 318.48-2.45 321.93-0.8 321.93 0ZM351.07 0L328.12 0 328.12-0.8 331.72-2.45 331.72-25.55 328.12-27.2 328.12-28 340.72-28 340.72-27.2 336.67-25.55 336.67-2.5 347.12-2.5 350.27-9.85 351.07-9.85 351.07 0Z" opacity="1" transform="matrix(1,0,0,1,0,0)" fill="#000000" class="wordmark-text-0" data-fill-palette-color="primary" id="text-0"></path></svg></g></svg></g><g transform="matrix(1,0,0,1,0,47.731096923704236)"><svg viewBox="0 0 200.21722984167593 23.86408109117014" height="23.86408109117014" width="200.21722984167593"><g transform="matrix(1,0,0,1,0,0)"><svg width="200.21722984167593" viewBox="2.6 -37.5 415.26 49.5" height="23.86408109117014" data-palette-color="#000000"><path d="M13.4 0.5L13.4 0.5Q10.2 0.5 7.83-0.13 5.45-0.75 3.1-1.95L3.1-1.95 2.6-10.3 3.5-10.3 6.55-4.55Q9.65-2 13.05-2L13.05-2Q15.85-2 17.55-3.38 19.25-4.75 19.25-7.3L19.25-7.3Q19.25-9.2 18.38-10.38 17.5-11.55 15.7-12.53 13.9-13.5 11-14.8L11-14.8Q7.5-16.5 5.6-18.48 3.7-20.45 3.7-23.8L3.7-23.8Q3.7-25.7 4.65-27.45 5.6-29.2 7.18-30.55 8.75-31.9 10.73-32.7 12.7-33.5 14.8-33.5L14.8-33.5Q17.3-33.5 19.48-32.93 21.65-32.35 23.65-31.3L23.65-31.3 24.15-23.3 23.3-23.3 20.25-28.8Q18.8-29.9 17.55-30.45 16.3-31 14.7-31L14.7-31Q12.6-31 11.23-29.6 9.85-28.2 9.85-26.05L9.85-26.05Q9.85-23.8 11.35-22.43 12.85-21.05 16.35-19.4L16.35-19.4Q19.4-18 21.35-16.65 23.3-15.3 24.25-13.6 25.2-11.9 25.2-9.4L25.2-9.4Q25.2-7 24.18-5.18 23.15-3.35 21.43-2.08 19.7-0.8 17.6-0.15 15.5 0.5 13.4 0.5ZM41.35 0.5L41.35 0.5Q37.95 0.5 35.32-1.1 32.7-2.7 31.25-5.38 29.8-8.05 29.8-11.35L29.8-11.35Q29.8-14.65 31.25-17.32 32.7-20 35.32-21.6 37.95-23.2 41.35-23.2L41.35-23.2Q44.8-23.2 47.4-21.6 50-20 51.45-17.32 52.9-14.65 52.9-11.35L52.9-11.35Q52.9-8.05 51.45-5.38 50-2.7 47.4-1.1 44.8 0.5 41.35 0.5ZM41.95-1.85L41.95-1.85Q43.65-1.85 44.72-3.05 45.8-4.25 46.3-6.2 46.8-8.15 46.8-10.35L46.8-10.35Q46.8-13.05 46.17-15.48 45.55-17.9 44.25-19.4 42.95-20.9 40.85-20.9L40.85-20.9Q39.15-20.9 38.05-19.7 36.95-18.5 36.42-16.55 35.9-14.6 35.9-12.4L35.9-12.4Q35.9-9.7 36.52-7.3 37.15-4.9 38.5-3.38 39.85-1.85 41.95-1.85ZM69.9 0L57.15 0 57.15-0.8 60.4-2.4 60.4-20.4 56.55-20.4 56.55-22.7 60.4-22.7 60.4-24.4Q60.4-25.6 61.07-27.3 61.75-29 62.92-30.78 64.1-32.55 65.7-34.08 67.3-35.6 69.15-36.55 71-37.5 72.95-37.5L72.95-37.5Q73.45-37.5 74-37.35 74.55-37.2 74.95-37L74.95-37Q76.25-36.35 76.25-35.7L76.25-35.7Q76.25-35.2 76-34.75L76-34.75 74.8-32.15 74.4-32.15 73.3-32.6Q72.5-33 71.77-33.18 71.05-33.35 70.15-33.35L70.15-33.35Q67.75-33.35 66.95-31.65 66.15-29.95 66.15-26.15L66.15-26.15 66.15-22.7 72.4-22.7 72.4-20.4 66.15-20.4 66.15-2.35 69.9-0.8 69.9 0ZM83.69 0.5L83.69 0.5Q80.99 0.5 79.17-0.8 77.34-2.1 77.34-4.45L77.34-4.45 77.34-20.4 73.54-20.4 73.54-20.9 78.04-22.7 82.44-28.2 83.14-28.2 83.14-22.7 89.94-22.7 89.94-20.4 83.14-20.4 83.14-5.55Q83.14-4.3 84.24-3.68 85.34-3.05 86.89-3.05L86.89-3.05Q87.84-3.05 88.62-3.15 89.39-3.25 90.04-3.4L90.04-3.4 90.19-3.35 90.19-2.65Q89.49-1.5 87.74-0.5 85.99 0.5 83.69 0.5ZM102.84 0L101.29 0 93.24-20.45 90.04-21.9 90.04-22.7 103.24-22.7 103.24-21.9 99.54-20.4 99.54-20.2 104.14-7.9 104.39-7.9 110.69-22.7 112.24-22.7 118.69-8 118.89-8 123.49-19.95 123.49-20.2 120.14-21.9 120.14-22.7 129.94-22.7 129.94-21.9 126.39-20.15 117.79 0 116.24 0 109.64-14.65 102.84 0ZM136.09 0.5L136.09 0.5Q133.69 0.5 132.01-0.95 130.34-2.4 130.39-5.05L130.39-5.05Q130.44-7.65 132.14-9.33 133.84-11 138.44-12.1L138.44-12.1 143.14-13.25 143.14-16.55Q143.14-18.4 141.89-19.58 140.64-20.75 138.89-20.75L138.89-20.75Q137.14-20.75 136.44-19.93 135.74-19.1 135.74-17.55L135.74-17.55 135.74-15.6 135.49-15.4 132.49-15.4Q131.74-15.4 131.44-15.7 131.14-16 131.14-16.9L131.14-16.9Q131.14-19.25 134.14-21.05L134.14-21.05Q135.74-22.05 137.31-22.63 138.89-23.2 140.64-23.2L140.64-23.2Q142.84-23.2 144.74-22.6 146.64-22 147.79-20.7 148.94-19.4 148.94-17.2L148.94-17.2 148.94-3.55Q149.64-2.75 151.49-2.75L151.49-2.75 153.14-2.75 153.29-2.6 153.29-2.1Q152.69-1.1 151.44-0.3 150.19 0.5 148.24 0.5L148.24 0.5Q146.34 0.5 145.16-0.38 143.99-1.25 143.49-2.75L143.49-2.75 143.14-2.75Q141.84-1.35 140.04-0.43 138.24 0.5 136.09 0.5ZM135.89-6.3L135.89-6.3Q135.89-4.7 136.81-3.93 137.74-3.15 139.39-3.15L139.39-3.15Q140.34-3.15 141.21-3.35 142.09-3.55 143.14-4L143.14-4 143.14-11.35Q140.04-10.75 138.49-10.03 136.94-9.3 136.41-8.4 135.89-7.5 135.89-6.3ZM168.54 0L155.69 0 155.69-0.8 158.94-2.4 158.94-17.3 155.84-19.75 155.84-20.25 163.74-23.2 164.19-23.2 164.64-18.8 164.89-18.8Q166.09-20.7 167.04-21.65 167.99-22.6 168.86-22.9 169.74-23.2 170.64-23.2L170.64-23.2Q171.04-23.2 171.54-23.05 172.04-22.9 172.44-22.75L172.44-22.75Q173.94-22.25 173.94-21.35L173.94-21.35Q173.94-20.95 173.79-20.5L173.79-20.5 172.64-17.55 172.29-17.55 170.74-18.15Q170.04-18.4 169.51-18.48 168.99-18.55 168.34-18.55L168.34-18.55Q166.24-18.55 164.69-16.5L164.69-16.5 164.69-2.4 168.54-0.8 168.54 0ZM187.28 0.5L187.28 0.5Q182.28 0.5 179.36-2.45 176.43-5.4 176.43-10.3L176.43-10.3Q176.43-14.1 178.03-17 179.63-19.9 182.26-21.55 184.88-23.2 188.08-23.2L188.08-23.2Q192.08-23.2 194.33-20.45 196.58-17.7 196.63-12.7L196.63-12.7 196.43-12.45 182.03-12.45Q182.03-10.2 182.83-8.33 183.63-6.45 185.43-5.33 187.23-4.2 190.18-4.2L190.18-4.2Q191.58-4.2 193.18-4.6 194.78-5 196.53-5.95L196.53-5.95 196.68-5.95 196.68-5.25Q195.48-2.8 193.03-1.15 190.58 0.5 187.28 0.5ZM187.08-20.95L187.08-20.95Q185.08-20.95 183.78-19.3 182.48-17.65 182.13-14.7L182.13-14.7 191.78-14.7Q191.33-18.15 190.13-19.55 188.93-20.95 187.08-20.95ZM241.48 0L213.93 0 213.93-0.8 218.13-2.85 218.13-30.15 213.93-32.2 213.93-33 240.08-33 240.08-24.35 239.28-24.35 235.83-30.25 224.38-30.25 224.38-18.4 232.43-18.4 235.13-22.65 235.93-22.65 235.93-11.5 235.13-11.5 232.43-15.65 224.38-15.65 224.38-2.75 237.08-2.75 240.68-9.75 241.48-9.75 241.48 0ZM258.68 0L246.68 0 246.68-0.8 249.93-2.4 249.93-17.5 246.83-19.75 246.83-20.25 254.73-23.2 255.23-23.2 255.68-19.5 255.93-19.5Q257.78-21.3 259.5-22.25 261.23-23.2 263.43-23.2L263.43-23.2Q266.43-23.2 268.35-21.65 270.28-20.1 270.28-17.15L270.28-17.15 270.28-2.4 273.53-0.8 273.53 0 261.53 0 261.53-0.8 264.48-2.4 264.48-15Q264.48-16.9 263.33-17.93 262.18-18.95 260.33-18.95L260.33-18.95Q259.18-18.95 257.88-18.55 256.58-18.15 255.73-17.45L255.73-17.45 255.73-2.4 258.68-0.8 258.68 0ZM287.77-7.4L287.77-7.4Q285.47-7.4 283.52-8.2L283.52-8.2Q282.77-7.8 282.47-7.23 282.17-6.65 282.17-6.05L282.17-6.05Q282.17-4.75 283.07-4.17 283.97-3.6 285.87-3.6L285.87-3.6 291.62-3.6Q295.42-3.6 297.22-1.93 299.02-0.25 299.02 3L299.02 3Q299.02 5.25 297.5 7.3 295.97 9.35 293.17 10.68 290.37 12 286.52 12L286.52 12Q281.67 12 279.6 10.4 277.52 8.8 277.52 6.4L277.52 6.4Q277.52 4.55 278.42 3.25L278.42 3.25 281.67 1.15 281.67 0.95Q277.82-0.15 277.82-3.7L277.82-3.7Q277.82-5.85 279.17-7.2L279.17-7.2 281.97-8.75 281.97-9.05Q280.37-10.1 279.42-11.73 278.47-13.35 278.47-15.3L278.47-15.3Q278.47-17.5 279.7-19.3 280.92-21.1 283.02-22.13 285.12-23.15 287.77-23.15L287.77-23.15Q289.02-23.15 290.32-22.88 291.62-22.6 292.57-22.15L292.57-22.15 300.22-22.65 300.22-19.75 295.32-20.1 295.12-19.95Q296.02-19.1 296.55-17.85 297.07-16.6 297.07-15.3L297.07-15.3Q297.07-13.05 295.85-11.28 294.62-9.5 292.52-8.45 290.42-7.4 287.77-7.4ZM288.22-9.5L288.22-9.5Q289.92-9.5 290.9-11.1 291.87-12.7 291.87-15.15L291.87-15.15Q291.87-17.9 290.65-19.5 289.42-21.1 287.57-21.1L287.57-21.1Q285.67-21.1 284.7-19.48 283.72-17.85 283.72-15.45L283.72-15.45Q283.72-12.7 284.97-11.1 286.22-9.5 288.22-9.5ZM281.47 5.6L281.47 5.6Q281.47 7.65 282.97 9 284.47 10.35 287.02 10.35L287.02 10.35Q290.27 10.35 292.22 8.72 294.17 7.1 294.17 4.9L294.17 4.9Q294.17 2.9 293.1 2.1 292.02 1.3 289.27 1.3L289.27 1.3 284.52 1.3Q284.02 1.3 283.57 1.25L283.57 1.25Q282.47 2 281.97 3.05 281.47 4.1 281.47 5.6ZM310.17-28.55L310.17-28.55Q308.72-28.55 307.77-29.53 306.82-30.5 306.82-31.95L306.82-31.95Q306.82-33.4 307.77-34.35 308.72-35.3 310.17-35.3L310.17-35.3Q311.62-35.3 312.6-34.35 313.57-33.4 313.57-31.95L313.57-31.95Q313.57-30.5 312.6-29.53 311.62-28.55 310.17-28.55ZM316.27 0L304.17 0 304.17-0.8 307.42-2.4 307.42-17.5 304.32-19.9 304.32-20.45 312.72-23.2 313.22-23.2 313.22-2.4 316.27-0.8 316.27 0ZM332.22 0L320.22 0 320.22-0.8 323.47-2.4 323.47-17.5 320.37-19.75 320.37-20.25 328.27-23.2 328.77-23.2 329.22-19.5 329.47-19.5Q331.32-21.3 333.04-22.25 334.77-23.2 336.97-23.2L336.97-23.2Q339.97-23.2 341.89-21.65 343.82-20.1 343.82-17.15L343.82-17.15 343.82-2.4 347.07-0.8 347.07 0 335.07 0 335.07-0.8 338.02-2.4 338.02-15Q338.02-16.9 336.87-17.93 335.72-18.95 333.87-18.95L333.87-18.95Q332.72-18.95 331.42-18.55 330.12-18.15 329.27-17.45L329.27-17.45 329.27-2.4 332.22-0.8 332.22 0ZM361.47 0.5L361.47 0.5Q356.47 0.5 353.54-2.45 350.62-5.4 350.62-10.3L350.62-10.3Q350.62-14.1 352.22-17 353.82-19.9 356.44-21.55 359.07-23.2 362.27-23.2L362.27-23.2Q366.27-23.2 368.52-20.45 370.77-17.7 370.82-12.7L370.82-12.7 370.62-12.45 356.22-12.45Q356.22-10.2 357.02-8.33 357.82-6.45 359.62-5.33 361.42-4.2 364.37-4.2L364.37-4.2Q365.77-4.2 367.37-4.6 368.97-5 370.72-5.95L370.72-5.95 370.87-5.95 370.87-5.25Q369.67-2.8 367.22-1.15 364.77 0.5 361.47 0.5ZM361.27-20.95L361.27-20.95Q359.27-20.95 357.97-19.3 356.67-17.65 356.32-14.7L356.32-14.7 365.97-14.7Q365.52-18.15 364.32-19.55 363.12-20.95 361.27-20.95ZM386.01 0.5L386.01 0.5Q381.01 0.5 378.09-2.45 375.16-5.4 375.16-10.3L375.16-10.3Q375.16-14.1 376.76-17 378.36-19.9 380.99-21.55 383.61-23.2 386.81-23.2L386.81-23.2Q390.81-23.2 393.06-20.45 395.31-17.7 395.36-12.7L395.36-12.7 395.16-12.45 380.76-12.45Q380.76-10.2 381.56-8.33 382.36-6.45 384.16-5.33 385.96-4.2 388.91-4.2L388.91-4.2Q390.31-4.2 391.91-4.6 393.51-5 395.26-5.95L395.26-5.95 395.41-5.95 395.41-5.25Q394.21-2.8 391.76-1.15 389.31 0.5 386.01 0.5ZM385.81-20.95L385.81-20.95Q383.81-20.95 382.51-19.3 381.21-17.65 380.86-14.7L380.86-14.7 390.51-14.7Q390.06-18.15 388.86-19.55 387.66-20.95 385.81-20.95ZM412.46 0L399.61 0 399.61-0.8 402.86-2.4 402.86-17.3 399.76-19.75 399.76-20.25 407.66-23.2 408.11-23.2 408.56-18.8 408.81-18.8Q410.01-20.7 410.96-21.65 411.91-22.6 412.79-22.9 413.66-23.2 414.56-23.2L414.56-23.2Q414.96-23.2 415.46-23.05 415.96-22.9 416.36-22.75L416.36-22.75Q417.86-22.25 417.86-21.35L417.86-21.35Q417.86-20.95 417.71-20.5L417.71-20.5 416.56-17.55 416.21-17.55 414.66-18.15Q413.96-18.4 413.44-18.48 412.91-18.55 412.26-18.55L412.26-18.55Q410.16-18.55 408.61-16.5L408.61-16.5 408.61-2.4 412.46-0.8 412.46 0Z" opacity="1" transform="matrix(1,0,0,1,0,0)" fill="#000000" class="slogan-text-1" data-fill-palette-color="secondary" id="text-1"></path></svg></g></svg></g></svg></g></svg></g><g><svg viewBox="0 0 176.78744871273778 176.78744871273778" height="176.78744871273778" width="176.78744871273778"><g><svg></svg></g><g id="icon-0"><svg viewBox="0 0 176.78744871273778 176.78744871273778" height="176.78744871273778" width="176.78744871273778"><g></g><g transform="matrix(1,0,0,1,34.979179767844286,59.42773784879019)"><svg viewBox="0 0 106.82908917704921 57.93197301515741" height="57.93197301515741" width="106.82908917704921"><g><svg xmlns="http://www.w3.org/2000/svg" data-name="Layer 1" viewBox="13.2 29.5 72.6 39.370000000000005" x="0" y="0" height="57.93197301515741" width="106.82908917704921" class="icon-cg-0" data-fill-palette-color="accent" id="cg-0"></svg></g></svg></g></svg></g></svg></g></svg></g><defs></defs><mask id="c427dd3a-d1e7-4e31-8d82-43a548e229ca"><g id="SvgjsG1109"><svg viewBox="0 0 395.52 118.40521943918148" height="118.40521943918148" width="395.52"><g><svg viewBox="0 0 590.5396066663918 176.78744871273778" height="118.40521943918148" width="395.52"><g transform="matrix(1,0,0,1,195.01960666639178,52.5961353489317)"><svg viewBox="0 0 395.52 71.59517801487438" height="71.59517801487438" width="395.52"><g id="SvgjsG1108"><svg viewBox="0 0 395.52 71.59517801487438" height="71.59517801487438" width="395.52" id="SvgjsSvg1107"><g><svg viewBox="0 0 395.52 38.615017946877245" height="38.615017946877245" width="395.52"><g transform="matrix(1,0,0,1,0,0)"><svg width="395.52" viewBox="2.85 -33.5 348.21999999999997 34" height="38.615017946877245" data-palette-color="#000000"><path d="M13.3 0.5L13.3 0.5Q10.15 0.5 7.93-0.1 5.7-0.7 3.35-1.85L3.35-1.85 2.85-10.1 3.65-10.1 6.3-4.65Q8.05-3.2 9.75-2.55 11.45-1.9 13.15-1.9L13.15-1.9Q16.05-1.9 17.73-3.4 19.4-4.9 19.4-7.5L19.4-7.5Q19.4-9.55 18.48-10.78 17.55-12 15.73-12.98 13.9-13.95 11.25-15.25L11.25-15.25Q7.7-16.95 5.8-18.82 3.9-20.7 3.9-24.1L3.9-24.1Q3.9-25.9 4.78-27.58 5.65-29.25 7.15-30.58 8.65-31.9 10.5-32.7 12.35-33.5 14.35-33.5L14.35-33.5Q16.7-33.5 18.75-32.95 20.8-32.4 22.8-31.35L22.8-31.35 23.3-23.35 22.5-23.35 19.9-28.7Q18.3-29.95 17-30.5 15.7-31.05 14.05-31.05L14.05-31.05Q11.9-31.05 10.48-29.6 9.05-28.15 9.05-25.95L9.05-25.95Q9.05-23.5 10.58-22.1 12.1-20.7 15.5-19.1L15.5-19.1Q18.5-17.65 20.48-16.32 22.45-15 23.4-13.35 24.35-11.7 24.35-9.15L24.35-9.15Q24.35-6.8 23.35-5 22.35-3.2 20.7-1.98 19.05-0.75 17.13-0.13 15.2 0.5 13.3 0.5ZM45.7 0.5L45.7 0.5Q42.25 0.5 39.52-0.63 36.8-1.75 35.25-4.28 33.7-6.8 33.7-10.95L33.7-10.95 33.7-25.55 30.05-27.2 30.05-28 42.3-28 42.3-27.2 38.65-25.55 38.65-11.2Q38.65-6.2 40.85-4.25 43.05-2.3 46.75-2.3L46.75-2.3Q48.9-2.3 50.67-3.13 52.45-3.95 53.5-5.68 54.55-7.4 54.55-10.1L54.55-10.1 54.55-25.65 50.35-27.2 50.35-28 61.05-28 61.05-27.2 57.5-25.6 57.5-10.85Q57.5-6.8 56-4.3 54.5-1.8 51.85-0.65 49.2 0.5 45.7 0.5ZM77.05 0L66.84 0 66.84-0.8 70.39-2.45 71.34-25.55 67.5-27.2 67.5-28 77.15-28 86.3-7.5 95.75-28 104.95-28 104.95-27.2 101.25-25.85 101.94-2.45 105.15-0.8 105.15 0 93.55 0 93.55-0.8 96.9-2.4 96.44-23.15 85.7 0.2 84.2 0.2 73.9-23.1 73.39-2.4 77.05-0.8 77.05 0ZM134.19 0L110.94 0 110.94-0.8 114.54-2.45 114.54-25.55 110.94-27.2 110.94-28 132.94-28 132.94-20.8 132.14-20.8 129.54-25.5 119.49-25.5 119.49-15.75 126.79-15.75 128.49-19.2 129.29-19.2 129.29-9.85 128.49-9.85 126.79-13.25 119.49-13.25 119.49-2.5 130.64-2.5 133.39-8.15 134.19-8.15 134.19 0ZM163.74 0L140.49 0 140.49-0.8 144.09-2.45 144.09-25.55 140.49-27.2 140.49-28 162.49-28 162.49-20.8 161.69-20.8 159.09-25.5 149.04-25.5 149.04-15.75 156.34-15.75 158.04-19.2 158.84-19.2 158.84-9.85 158.04-9.85 156.34-13.25 149.04-13.25 149.04-2.5 160.19-2.5 162.94-8.15 163.74-8.15 163.74 0ZM189.49 0L175.49 0 175.49-0.8 179.99-2.45 179.99-25.5 172.64-25.5 169.99-19.4 169.19-19.4 169.19-28 195.79-28 195.79-19.4 194.99-19.4 192.29-25.5 184.94-25.5 184.94-2.45 189.49-0.8 189.49 0ZM227.33 0L213.43 0 213.43-0.8 217.48-2.8 217.48-30.2 213.43-32.2 213.43-33 227.43-33Q233.33-33 236.91-30.85 240.48-28.7 240.48-24.05L240.48-24.05Q240.48-21.3 238.61-19.18 236.73-17.05 233.53-15.83 230.33-14.6 226.23-14.6L226.23-14.6 222.73-14.6 222.73-2.8 227.33-0.8 227.33 0ZM226.18-30.25L222.73-30.25 222.73-17.25 226.53-17.25Q230.48-17.25 232.73-19.05 234.98-20.85 234.98-23.65L234.98-23.65Q234.98-27.15 232.71-28.7 230.43-30.25 226.18-30.25L226.18-30.25ZM253.68 0L244.38 0 244.38-0.8 246.93-2.15 258.03-28.25 260.63-28.25 271.63-2.25 274.58-0.8 274.58 0 262.98 0 262.98-0.8 266.48-2.25 263.38-9.65 253.08-9.65 250.03-2.2 253.68-0.8 253.68 0ZM258.18-22.1L254.13-12.15 262.33-12.15 258.18-22.1ZM298.53 0L284.53 0 284.53-0.8 289.03-2.45 289.03-25.5 281.68-25.5 279.03-19.4 278.23-19.4 278.23-28 304.83-28 304.83-19.4 304.03-19.4 301.33-25.5 293.98-25.5 293.98-2.45 298.53-0.8 298.53 0ZM321.93 0L310.18 0 310.18-0.8 313.48-2.45 313.48-25.55 310.18-27.2 310.18-28 321.93-28 321.93-27.2 318.48-25.55 318.48-2.45 321.93-0.8 321.93 0ZM351.07 0L328.12 0 328.12-0.8 331.72-2.45 331.72-25.55 328.12-27.2 328.12-28 340.72-28 340.72-27.2 336.67-25.55 336.67-2.5 347.12-2.5 350.27-9.85 351.07-9.85 351.07 0Z" opacity="1" transform="matrix(1,0,0,1,0,0)" fill="black" class="wordmark-text-0" id="SvgjsPath1106"></path></svg></g></svg></g><g transform="matrix(1,0,0,1,0,47.731096923704236)"><svg viewBox="0 0 200.21722984167593 23.86408109117014" height="23.86408109117014" width="200.21722984167593"><g transform="matrix(1,0,0,1,0,0)"><svg width="200.21722984167593" viewBox="2.6 -37.5 415.26 49.5" height="23.86408109117014" data-palette-color="#000000"><path d="M13.4 0.5L13.4 0.5Q10.2 0.5 7.83-0.13 5.45-0.75 3.1-1.95L3.1-1.95 2.6-10.3 3.5-10.3 6.55-4.55Q9.65-2 13.05-2L13.05-2Q15.85-2 17.55-3.38 19.25-4.75 19.25-7.3L19.25-7.3Q19.25-9.2 18.38-10.38 17.5-11.55 15.7-12.53 13.9-13.5 11-14.8L11-14.8Q7.5-16.5 5.6-18.48 3.7-20.45 3.7-23.8L3.7-23.8Q3.7-25.7 4.65-27.45 5.6-29.2 7.18-30.55 8.75-31.9 10.73-32.7 12.7-33.5 14.8-33.5L14.8-33.5Q17.3-33.5 19.48-32.93 21.65-32.35 23.65-31.3L23.65-31.3 24.15-23.3 23.3-23.3 20.25-28.8Q18.8-29.9 17.55-30.45 16.3-31 14.7-31L14.7-31Q12.6-31 11.23-29.6 9.85-28.2 9.85-26.05L9.85-26.05Q9.85-23.8 11.35-22.43 12.85-21.05 16.35-19.4L16.35-19.4Q19.4-18 21.35-16.65 23.3-15.3 24.25-13.6 25.2-11.9 25.2-9.4L25.2-9.4Q25.2-7 24.18-5.18 23.15-3.35 21.43-2.08 19.7-0.8 17.6-0.15 15.5 0.5 13.4 0.5ZM41.35 0.5L41.35 0.5Q37.95 0.5 35.32-1.1 32.7-2.7 31.25-5.38 29.8-8.05 29.8-11.35L29.8-11.35Q29.8-14.65 31.25-17.32 32.7-20 35.32-21.6 37.95-23.2 41.35-23.2L41.35-23.2Q44.8-23.2 47.4-21.6 50-20 51.45-17.32 52.9-14.65 52.9-11.35L52.9-11.35Q52.9-8.05 51.45-5.38 50-2.7 47.4-1.1 44.8 0.5 41.35 0.5ZM41.95-1.85L41.95-1.85Q43.65-1.85 44.72-3.05 45.8-4.25 46.3-6.2 46.8-8.15 46.8-10.35L46.8-10.35Q46.8-13.05 46.17-15.48 45.55-17.9 44.25-19.4 42.95-20.9 40.85-20.9L40.85-20.9Q39.15-20.9 38.05-19.7 36.95-18.5 36.42-16.55 35.9-14.6 35.9-12.4L35.9-12.4Q35.9-9.7 36.52-7.3 37.15-4.9 38.5-3.38 39.85-1.85 41.95-1.85ZM69.9 0L57.15 0 57.15-0.8 60.4-2.4 60.4-20.4 56.55-20.4 56.55-22.7 60.4-22.7 60.4-24.4Q60.4-25.6 61.07-27.3 61.75-29 62.92-30.78 64.1-32.55 65.7-34.08 67.3-35.6 69.15-36.55 71-37.5 72.95-37.5L72.95-37.5Q73.45-37.5 74-37.35 74.55-37.2 74.95-37L74.95-37Q76.25-36.35 76.25-35.7L76.25-35.7Q76.25-35.2 76-34.75L76-34.75 74.8-32.15 74.4-32.15 73.3-32.6Q72.5-33 71.77-33.18 71.05-33.35 70.15-33.35L70.15-33.35Q67.75-33.35 66.95-31.65 66.15-29.95 66.15-26.15L66.15-26.15 66.15-22.7 72.4-22.7 72.4-20.4 66.15-20.4 66.15-2.35 69.9-0.8 69.9 0ZM83.69 0.5L83.69 0.5Q80.99 0.5 79.17-0.8 77.34-2.1 77.34-4.45L77.34-4.45 77.34-20.4 73.54-20.4 73.54-20.9 78.04-22.7 82.44-28.2 83.14-28.2 83.14-22.7 89.94-22.7 89.94-20.4 83.14-20.4 83.14-5.55Q83.14-4.3 84.24-3.68 85.34-3.05 86.89-3.05L86.89-3.05Q87.84-3.05 88.62-3.15 89.39-3.25 90.04-3.4L90.04-3.4 90.19-3.35 90.19-2.65Q89.49-1.5 87.74-0.5 85.99 0.5 83.69 0.5ZM102.84 0L101.29 0 93.24-20.45 90.04-21.9 90.04-22.7 103.24-22.7 103.24-21.9 99.54-20.4 99.54-20.2 104.14-7.9 104.39-7.9 110.69-22.7 112.24-22.7 118.69-8 118.89-8 123.49-19.95 123.49-20.2 120.14-21.9 120.14-22.7 129.94-22.7 129.94-21.9 126.39-20.15 117.79 0 116.24 0 109.64-14.65 102.84 0ZM136.09 0.5L136.09 0.5Q133.69 0.5 132.01-0.95 130.34-2.4 130.39-5.05L130.39-5.05Q130.44-7.65 132.14-9.33 133.84-11 138.44-12.1L138.44-12.1 143.14-13.25 143.14-16.55Q143.14-18.4 141.89-19.58 140.64-20.75 138.89-20.75L138.89-20.75Q137.14-20.75 136.44-19.93 135.74-19.1 135.74-17.55L135.74-17.55 135.74-15.6 135.49-15.4 132.49-15.4Q131.74-15.4 131.44-15.7 131.14-16 131.14-16.9L131.14-16.9Q131.14-19.25 134.14-21.05L134.14-21.05Q135.74-22.05 137.31-22.63 138.89-23.2 140.64-23.2L140.64-23.2Q142.84-23.2 144.74-22.6 146.64-22 147.79-20.7 148.94-19.4 148.94-17.2L148.94-17.2 148.94-3.55Q149.64-2.75 151.49-2.75L151.49-2.75 153.14-2.75 153.29-2.6 153.29-2.1Q152.69-1.1 151.44-0.3 150.19 0.5 148.24 0.5L148.24 0.5Q146.34 0.5 145.16-0.38 143.99-1.25 143.49-2.75L143.49-2.75 143.14-2.75Q141.84-1.35 140.04-0.43 138.24 0.5 136.09 0.5ZM135.89-6.3L135.89-6.3Q135.89-4.7 136.81-3.93 137.74-3.15 139.39-3.15L139.39-3.15Q140.34-3.15 141.21-3.35 142.09-3.55 143.14-4L143.14-4 143.14-11.35Q140.04-10.75 138.49-10.03 136.94-9.3 136.41-8.4 135.89-7.5 135.89-6.3ZM168.54 0L155.69 0 155.69-0.8 158.94-2.4 158.94-17.3 155.84-19.75 155.84-20.25 163.74-23.2 164.19-23.2 164.64-18.8 164.89-18.8Q166.09-20.7 167.04-21.65 167.99-22.6 168.86-22.9 169.74-23.2 170.64-23.2L170.64-23.2Q171.04-23.2 171.54-23.05 172.04-22.9 172.44-22.75L172.44-22.75Q173.94-22.25 173.94-21.35L173.94-21.35Q173.94-20.95 173.79-20.5L173.79-20.5 172.64-17.55 172.29-17.55 170.74-18.15Q170.04-18.4 169.51-18.48 168.99-18.55 168.34-18.55L168.34-18.55Q166.24-18.55 164.69-16.5L164.69-16.5 164.69-2.4 168.54-0.8 168.54 0ZM187.28 0.5L187.28 0.5Q182.28 0.5 179.36-2.45 176.43-5.4 176.43-10.3L176.43-10.3Q176.43-14.1 178.03-17 179.63-19.9 182.26-21.55 184.88-23.2 188.08-23.2L188.08-23.2Q192.08-23.2 194.33-20.45 196.58-17.7 196.63-12.7L196.63-12.7 196.43-12.45 182.03-12.45Q182.03-10.2 182.83-8.33 183.63-6.45 185.43-5.33 187.23-4.2 190.18-4.2L190.18-4.2Q191.58-4.2 193.18-4.6 194.78-5 196.53-5.95L196.53-5.95 196.68-5.95 196.68-5.25Q195.48-2.8 193.03-1.15 190.58 0.5 187.28 0.5ZM187.08-20.95L187.08-20.95Q185.08-20.95 183.78-19.3 182.48-17.65 182.13-14.7L182.13-14.7 191.78-14.7Q191.33-18.15 190.13-19.55 188.93-20.95 187.08-20.95ZM241.48 0L213.93 0 213.93-0.8 218.13-2.85 218.13-30.15 213.93-32.2 213.93-33 240.08-33 240.08-24.35 239.28-24.35 235.83-30.25 224.38-30.25 224.38-18.4 232.43-18.4 235.13-22.65 235.93-22.65 235.93-11.5 235.13-11.5 232.43-15.65 224.38-15.65 224.38-2.75 237.08-2.75 240.68-9.75 241.48-9.75 241.48 0ZM258.68 0L246.68 0 246.68-0.8 249.93-2.4 249.93-17.5 246.83-19.75 246.83-20.25 254.73-23.2 255.23-23.2 255.68-19.5 255.93-19.5Q257.78-21.3 259.5-22.25 261.23-23.2 263.43-23.2L263.43-23.2Q266.43-23.2 268.35-21.65 270.28-20.1 270.28-17.15L270.28-17.15 270.28-2.4 273.53-0.8 273.53 0 261.53 0 261.53-0.8 264.48-2.4 264.48-15Q264.48-16.9 263.33-17.93 262.18-18.95 260.33-18.95L260.33-18.95Q259.18-18.95 257.88-18.55 256.58-18.15 255.73-17.45L255.73-17.45 255.73-2.4 258.68-0.8 258.68 0ZM287.77-7.4L287.77-7.4Q285.47-7.4 283.52-8.2L283.52-8.2Q282.77-7.8 282.47-7.23 282.17-6.65 282.17-6.05L282.17-6.05Q282.17-4.75 283.07-4.17 283.97-3.6 285.87-3.6L285.87-3.6 291.62-3.6Q295.42-3.6 297.22-1.93 299.02-0.25 299.02 3L299.02 3Q299.02 5.25 297.5 7.3 295.97 9.35 293.17 10.68 290.37 12 286.52 12L286.52 12Q281.67 12 279.6 10.4 277.52 8.8 277.52 6.4L277.52 6.4Q277.52 4.55 278.42 3.25L278.42 3.25 281.67 1.15 281.67 0.95Q277.82-0.15 277.82-3.7L277.82-3.7Q277.82-5.85 279.17-7.2L279.17-7.2 281.97-8.75 281.97-9.05Q280.37-10.1 279.42-11.73 278.47-13.35 278.47-15.3L278.47-15.3Q278.47-17.5 279.7-19.3 280.92-21.1 283.02-22.13 285.12-23.15 287.77-23.15L287.77-23.15Q289.02-23.15 290.32-22.88 291.62-22.6 292.57-22.15L292.57-22.15 300.22-22.65 300.22-19.75 295.32-20.1 295.12-19.95Q296.02-19.1 296.55-17.85 297.07-16.6 297.07-15.3L297.07-15.3Q297.07-13.05 295.85-11.28 294.62-9.5 292.52-8.45 290.42-7.4 287.77-7.4ZM288.22-9.5L288.22-9.5Q289.92-9.5 290.9-11.1 291.87-12.7 291.87-15.15L291.87-15.15Q291.87-17.9 290.65-19.5 289.42-21.1 287.57-21.1L287.57-21.1Q285.67-21.1 284.7-19.48 283.72-17.85 283.72-15.45L283.72-15.45Q283.72-12.7 284.97-11.1 286.22-9.5 288.22-9.5ZM281.47 5.6L281.47 5.6Q281.47 7.65 282.97 9 284.47 10.35 287.02 10.35L287.02 10.35Q290.27 10.35 292.22 8.72 294.17 7.1 294.17 4.9L294.17 4.9Q294.17 2.9 293.1 2.1 292.02 1.3 289.27 1.3L289.27 1.3 284.52 1.3Q284.02 1.3 283.57 1.25L283.57 1.25Q282.47 2 281.97 3.05 281.47 4.1 281.47 5.6ZM310.17-28.55L310.17-28.55Q308.72-28.55 307.77-29.53 306.82-30.5 306.82-31.95L306.82-31.95Q306.82-33.4 307.77-34.35 308.72-35.3 310.17-35.3L310.17-35.3Q311.62-35.3 312.6-34.35 313.57-33.4 313.57-31.95L313.57-31.95Q313.57-30.5 312.6-29.53 311.62-28.55 310.17-28.55ZM316.27 0L304.17 0 304.17-0.8 307.42-2.4 307.42-17.5 304.32-19.9 304.32-20.45 312.72-23.2 313.22-23.2 313.22-2.4 316.27-0.8 316.27 0ZM332.22 0L320.22 0 320.22-0.8 323.47-2.4 323.47-17.5 320.37-19.75 320.37-20.25 328.27-23.2 328.77-23.2 329.22-19.5 329.47-19.5Q331.32-21.3 333.04-22.25 334.77-23.2 336.97-23.2L336.97-23.2Q339.97-23.2 341.89-21.65 343.82-20.1 343.82-17.15L343.82-17.15 343.82-2.4 347.07-0.8 347.07 0 335.07 0 335.07-0.8 338.02-2.4 338.02-15Q338.02-16.9 336.87-17.93 335.72-18.95 333.87-18.95L333.87-18.95Q332.72-18.95 331.42-18.55 330.12-18.15 329.27-17.45L329.27-17.45 329.27-2.4 332.22-0.8 332.22 0ZM361.47 0.5L361.47 0.5Q356.47 0.5 353.54-2.45 350.62-5.4 350.62-10.3L350.62-10.3Q350.62-14.1 352.22-17 353.82-19.9 356.44-21.55 359.07-23.2 362.27-23.2L362.27-23.2Q366.27-23.2 368.52-20.45 370.77-17.7 370.82-12.7L370.82-12.7 370.62-12.45 356.22-12.45Q356.22-10.2 357.02-8.33 357.82-6.45 359.62-5.33 361.42-4.2 364.37-4.2L364.37-4.2Q365.77-4.2 367.37-4.6 368.97-5 370.72-5.95L370.72-5.95 370.87-5.95 370.87-5.25Q369.67-2.8 367.22-1.15 364.77 0.5 361.47 0.5ZM361.27-20.95L361.27-20.95Q359.27-20.95 357.97-19.3 356.67-17.65 356.32-14.7L356.32-14.7 365.97-14.7Q365.52-18.15 364.32-19.55 363.12-20.95 361.27-20.95ZM386.01 0.5L386.01 0.5Q381.01 0.5 378.09-2.45 375.16-5.4 375.16-10.3L375.16-10.3Q375.16-14.1 376.76-17 378.36-19.9 380.99-21.55 383.61-23.2 386.81-23.2L386.81-23.2Q390.81-23.2 393.06-20.45 395.31-17.7 395.36-12.7L395.36-12.7 395.16-12.45 380.76-12.45Q380.76-10.2 381.56-8.33 382.36-6.45 384.16-5.33 385.96-4.2 388.91-4.2L388.91-4.2Q390.31-4.2 391.91-4.6 393.51-5 395.26-5.95L395.26-5.95 395.41-5.95 395.41-5.25Q394.21-2.8 391.76-1.15 389.31 0.5 386.01 0.5ZM385.81-20.95L385.81-20.95Q383.81-20.95 382.51-19.3 381.21-17.65 380.86-14.7L380.86-14.7 390.51-14.7Q390.06-18.15 388.86-19.55 387.66-20.95 385.81-20.95ZM412.46 0L399.61 0 399.61-0.8 402.86-2.4 402.86-17.3 399.76-19.75 399.76-20.25 407.66-23.2 408.11-23.2 408.56-18.8 408.81-18.8Q410.01-20.7 410.96-21.65 411.91-22.6 412.79-22.9 413.66-23.2 414.56-23.2L414.56-23.2Q414.96-23.2 415.46-23.05 415.96-22.9 416.36-22.75L416.36-22.75Q417.86-22.25 417.86-21.35L417.86-21.35Q417.86-20.95 417.71-20.5L417.71-20.5 416.56-17.55 416.21-17.55 414.66-18.15Q413.96-18.4 413.44-18.48 412.91-18.55 412.26-18.55L412.26-18.55Q410.16-18.55 408.61-16.5L408.61-16.5 408.61-2.4 412.46-0.8 412.46 0Z" opacity="1" transform="matrix(1,0,0,1,0,0)" fill="black" class="slogan-text-1" id="SvgjsPath1105"></path></svg></g></svg></g></svg></g></svg></g><g><svg viewBox="0 0 176.78744871273778 176.78744871273778" height="176.78744871273778" width="176.78744871273778"><g><svg></svg></g><g id="SvgjsG1104"><svg viewBox="0 0 176.78744871273778 176.78744871273778" height="176.78744871273778" width="176.78744871273778"><g><path d="M0 88.394c0-48.819 39.575-88.394 88.394-88.394 48.819 0 88.394 39.575 88.393 88.394 0 48.819-39.575 88.394-88.393 88.393-48.819 0-88.394-39.575-88.394-88.393zM88.394 173.305c46.895 0 84.911-38.016 84.911-84.911 0-46.895-38.016-84.911-84.911-84.912-46.895 0-84.911 38.016-84.912 84.912 0 46.895 38.016 84.911 84.912 84.911z" fill="white" stroke="transparent"></path></g><g transform="matrix(1,0,0,1,34.979179767844286,59.42773784879019)"><svg viewBox="0 0 106.82908917704921 57.93197301515741" height="57.93197301515741" width="106.82908917704921"><g><svg xmlns="http://www.w3.org/2000/svg" data-name="Layer 1" viewBox="13.2 29.5 72.6 39.370000000000005" x="0" y="0" height="57.93197301515741" width="106.82908917704921" class="icon-cg-0" data-fill-palette-color="accent" id="SvgjsSvg1103"><polygon points="39.6 68.87 42.82 68.87 59.4 29.5 56.18 29.5 39.6 68.87" fill="white"></polygon><polygon points="66 29.5 66 34.14 81.13 49.17 66 64.21 66 68.84 85.8 49.17 66 29.5" fill="white"></polygon><polygon points="33 68.84 33 64.21 17.87 49.17 33 34.14 33 29.5 13.2 49.17 33 68.84" fill="white"></polygon></svg></g></svg></g></svg></g></svg></g></svg></g><defs><mask></mask></defs></svg><rect width="395.52" height="118.40521943918148" fill="black" stroke="none" visibility="hidden"></rect></g></mask><linearGradient x1="0.054" x2="0.941" y1="0.5" y2="0.5" id="c5070319-9664-4039-ac9f-d6ed615ed802"><stop stop-color="#26282a" offset="0"></stop><stop stop-color="#9e9fa0" offset="0.498"></stop><stop stop-color="#26282a" offset="1"></stop></linearGradient><rect width="395.52" height="118.40521943918148" fill="#000000" mask="url(#c427dd3a-d1e7-4e31-8d82-43a548e229ca)" data-fill-palette-color="accent"></rect></svg><rect width="395.52" height="118.40521943918148" fill="none" stroke="none" visibility="hidden"></rect></g></svg></g></svg>